<?xml version="1.0" standalone="no"?>
<!DOCTYPE svg PUBLIC "-//W3C//DTD SVG 20010904//EN"
 "http://www.w3.org/TR/2001/REC-SVG-20010904/DTD/svg10.dtd">
<svg version="1.0" xmlns="http://www.w3.org/2000/svg"
 width="540.000000pt" height="540.000000pt" viewBox="0 0 540.000000 540.000000"
 preserveAspectRatio="xMidYMid meet">

<g transform="translate(0.000000,540.000000) scale(0.100000,-0.100000)"
fill="#F0FAF5">
<path d="M2630 3840 c-138 -22 -269 -90 -375 -195 -137 -137 -184 -253 -194
-475 -6 -136 -8 -147 -33 -183 -77 -109 -165 -334 -214 -542 -24 -104 -28
-142 -28 -286 -1 -151 1 -169 18 -188 25 -28 61 -27 117 4 l46 24 54 -87 c64
-106 180 -224 267 -272 141 -79 138 -80 -173 -80 -217 0 -256 -2 -269 -16 -20
-19 -20 -54 -2 -80 14 -19 35 -19 876 -19 l862 0 19 24 c23 28 24 41 5 67 -13
18 -32 19 -277 24 -162 3 -263 9 -265 15 -2 6 31 30 74 54 94 54 231 189 285
279 20 35 37 67 37 72 0 20 21 18 62 -5 70 -40 119 -29 134 31 14 53 -3 347
-24 440 -44 191 -105 347 -197 512 l-45 80 0 103 c0 180 -47 323 -144 447
-146 185 -395 287 -616 252z m-105 -369 c89 -40 135 -126 135 -251 0 -49 0
-49 -52 -77 -81 -43 -78 -62 22 -156 45 -43 86 -77 92 -77 6 0 49 37 96 83 99
98 101 112 21 152 l-49 25 0 77 c0 124 54 205 157 234 82 23 174 -18 225 -98
l23 -38 5 -480 6 -480 27 -80 c14 -44 43 -104 63 -133 42 -62 41 -74 -12 -169
-84 -150 -246 -276 -404 -313 -30 -7 -61 -17 -68 -23 -14 -11 -12 -51 3 -89 7
-16 -2 -18 -90 -18 l-97 0 8 33 c8 33 8 66 1 73 -2 3 -37 14 -76 25 -186 51
-342 182 -423 354 -25 54 -29 71 -20 84 35 49 68 111 91 170 l26 66 5 480 c4
424 7 484 22 515 29 59 68 95 125 116 52 18 91 17 138 -5z m253 -385 c3 -4 -8
-21 -26 -39 l-32 -32 -30 32 c-17 18 -30 34 -30 37 0 15 103 16 118 2z"/>
<path d="M2445 3316 c-21 -15 -25 -67 -5 -90 17 -22 63 -20 83 2 50 55 -19
132 -78 88z"/>
<path d="M2920 3310 c-55 -55 14 -129 78 -84 12 8 22 26 22 40 0 29 -32 64
-60 64 -11 0 -29 -9 -40 -20z"/>
<path d="M2649 2733 c-44 -45 -61 -70 -73 -112 -32 -108 -13 -215 53 -298 l38
-49 -24 -30 c-43 -51 -63 -88 -63 -117 0 -51 43 -45 107 16 l33 31 27 -26 c37
-34 75 -58 90 -58 7 0 17 9 23 20 12 22 -7 66 -54 129 l-25 34 34 47 c48 65
67 123 67 200 0 76 -20 137 -62 190 -28 36 -87 80 -105 80 -5 0 -34 -26 -66
-57z m115 -85 c16 -26 -4 -52 -43 -56 -25 -3 -33 1 -40 20 -13 36 4 60 41 56
17 -2 36 -11 42 -20z"/>
</g>
</svg>
